<?xml version="1.0" standalone="no"?>
<!DOCTYPE svg PUBLIC "-//W3C//DTD SVG 20010904//EN"
 "http://www.w3.org/TR/2001/REC-SVG-20010904/DTD/svg10.dtd">
<svg version="1.0" xmlns="http://www.w3.org/2000/svg"
 width="700.000000pt" height="465.000000pt" viewBox="0 0 700.000000 465.000000"
 preserveAspectRatio="xMidYMid meet">

<g transform="translate(0.000000,465.000000) scale(0.100000,-0.100000)"
fill="#000000" stroke="none">
<path d="M494 4527 c-1 -148 -20 -219 -94 -352 -27 -49 -39 -77 -25 -60 33 40
90 157 110 225 19 67 31 233 19 278 -7 23 -9 -2 -10 -91z"/>
<path d="M646 4605 c11 -101 55 -221 100 -274 39 -47 147 -129 180 -137 16 -4
36 -12 44 -18 13 -10 13 -9 1 7 -7 9 -21 17 -30 17 -22 0 -106 58 -159 110
-52 50 -83 115 -107 225 -22 102 -37 138 -29 70z"/>
<path d="M1586 4583 c-58 -117 -84 -297 -54 -384 23 -70 110 -149 162 -149 8
0 17 -10 19 -22 4 -20 4 -19 6 5 1 20 6 27 21 27 40 0 20 73 -34 127 -40 40
-65 93 -72 156 -6 52 -6 54 17 53 13 -1 28 -7 32 -13 10 -16 64 -17 69 -2 3 9
10 9 26 0 31 -17 28 4 -3 25 -19 13 -39 15 -80 11 -60 -6 -64 -2 -45 48 10 26
13 27 58 22 l47 -6 -40 11 c-22 6 -42 12 -44 15 -11 9 75 83 95 83 13 0 35 5
50 10 24 9 32 7 65 -20 21 -16 45 -30 53 -30 9 0 16 -4 16 -10 0 -5 -4 -10 -8
-10 -5 0 -17 -7 -28 -15 -16 -14 -14 -14 14 0 33 16 34 16 70 -11 36 -28 36
-28 11 -35 -13 -4 -36 -10 -52 -13 -30 -7 -67 -39 -67 -58 0 -6 7 -3 15 8 12
15 16 16 24 5 11 -17 48 -6 61 19 6 11 17 17 25 14 8 -4 15 -1 15 6 0 6 5 8
10 5 6 -3 11 -23 11 -43 l2 -37 6 34 c6 33 6 33 24 13 20 -22 15 -64 -12 -96
-15 -17 -16 -17 -22 10 -6 27 -7 27 -8 -8 -1 -36 -56 -155 -89 -191 -9 -11
-27 -23 -39 -28 -28 -11 -20 -47 13 -55 59 -15 161 65 194 152 25 69 25 121 0
229 -21 91 -26 104 -69 172 l-26 42 -202 1 -203 0 -34 -67z m244 37 c0 -5 -9
-10 -19 -10 -11 0 -28 -3 -38 -6 -10 -3 -7 2 7 10 29 18 50 20 50 6z m150
-180 c0 -5 -4 -10 -10 -10 -5 0 -10 5 -10 10 0 6 5 10 10 10 6 0 10 -4 10 -10z
m-369 -37 c1 -11 7 -51 14 -86 6 -37 -13 -31 -38 11 -21 36 -16 82 8 82 8 0
15 -3 16 -7z m129 -13 c0 -5 -2 -10 -4 -10 -3 0 -8 5 -11 10 -3 6 -1 10 4 10
6 0 11 -4 11 -10z"/>
<path d="M2892 4556 c-7 -54 -21 -119 -32 -144 -11 -25 -19 -47 -16 -49 7 -7
44 94 56 152 6 33 10 78 8 100 -2 29 -6 14 -16 -59z"/>
<path d="M3077 4625 c20 -101 107 -220 195 -268 l33 -18 -30 22 c-79 60 -142
135 -164 194 -30 84 -42 109 -34 70z"/>
<path d="M3731 4569 c1 -45 6 -102 11 -128 13 -61 101 -237 141 -279 45 -47
119 -82 191 -90 l61 -7 8 -80 c15 -151 -3 -306 -48 -410 -9 -22 -13 -35 -8
-30 20 21 52 113 64 180 15 90 6 273 -22 430 -12 66 -22 129 -23 140 0 11 -11
34 -23 52 -13 17 -23 36 -23 42 0 15 -13 14 -29 -1 -10 -11 -15 -9 -27 7 -8
11 -12 26 -9 33 3 8 -4 30 -16 49 -21 33 -21 35 -3 48 25 19 32 18 38 -2 4
-12 17 -18 37 -19 21 -1 27 2 17 8 -8 6 -1 7 21 3 23 -5 36 -3 43 6 6 9 11 10
14 3 2 -6 18 -8 35 -6 l30 4 -26 28 c-15 16 -25 33 -21 38 3 5 28 10 57 11 28
1 59 6 69 11 10 6 29 10 42 10 20 0 19 -3 -15 -31 -24 -20 -37 -39 -37 -55 0
-13 5 -24 10 -24 6 0 10 7 10 15 0 16 42 30 64 22 10 -4 13 -1 9 9 -3 7 -1 14
5 14 6 0 13 -6 15 -12 4 -10 6 -10 6 0 1 6 6 12 12 12 5 0 7 -5 3 -11 -5 -9 1
-10 22 -5 16 4 30 11 32 16 2 5 10 6 18 3 19 -7 17 -148 -2 -164 -18 -15 -37
-1 -31 22 3 11 2 19 -2 19 -4 0 -12 -19 -19 -42 -6 -24 -28 -68 -48 -100 -51
-78 -93 -95 -155 -62 -17 8 -33 13 -36 10 -7 -6 64 -36 86 -36 14 0 16 -14 13
-117 -3 -89 1 -142 16 -215 34 -164 77 -236 195 -323 60 -45 42 -22 -23 29
-100 77 -138 155 -166 341 -22 147 -24 142 44 142 83 1 230 56 296 112 27 24
69 99 74 135 9 70 3 242 -11 281 l-14 40 -487 3 -487 2 2 -81z"/>
<path d="M5281 4602 c-11 -53 -64 -171 -99 -219 -12 -17 -22 -33 -22 -36 0 -6
132 3 195 13 37 6 42 8 18 9 -39 1 -52 31 -29 66 9 13 13 31 10 40 -4 8 0 22
7 31 7 9 16 37 19 62 4 26 11 55 15 65 6 15 1 17 -48 17 l-55 0 -11 -48z m99
19 c0 -5 -18 -11 -40 -13 -42 -4 -56 8 -17 15 40 8 57 7 57 -2z"/>
<path d="M5478 4643 c7 -3 16 -2 19 1 4 3 -2 6 -13 5 -11 0 -14 -3 -6 -6z"/>
<path d="M5515 4640 c3 -5 1 -10 -4 -10 -6 0 -11 -6 -11 -14 0 -8 7 -12 18
-10 11 3 25 -7 41 -31 24 -36 22 -50 -14 -78 -6 -4 -2 -7 8 -5 14 2 22 -7 32
-34 12 -35 11 -38 -5 -38 -11 0 -20 9 -23 23 -3 16 -5 14 -6 -10 -2 -59 4 -63
88 -63 75 0 76 0 90 31 19 43 37 46 67 10 15 -18 29 -30 31 -27 10 9 -52 62
-86 74 -57 20 -144 91 -187 153 -15 22 -31 39 -36 39 -5 0 -6 -4 -3 -10z m75
-130 c0 -5 -4 -10 -10 -10 -5 0 -10 5 -10 10 0 6 5 10 10 10 6 0 10 -4 10 -10z"/>
<path d="M6334 4605 c-12 -82 14 -185 59 -233 25 -27 88 -62 112 -62 8 0 15
-5 15 -10 0 -7 4 -7 13 0 6 6 21 17 32 24 17 12 18 17 7 40 -6 14 -29 45 -50
68 -55 62 -72 93 -72 132 0 19 -5 38 -12 42 -8 5 -9 -3 -5 -29 5 -34 4 -36
-14 -27 -11 6 -25 30 -31 55 -17 62 -44 62 -54 0z m95 -138 c12 -15 12 -17 -3
-11 -9 3 -16 13 -16 22 0 8 1 13 3 11 1 -2 9 -12 16 -22z"/>
<path d="M6420 4640 c0 -5 4 -10 9 -10 6 0 13 5 16 10 3 6 -1 10 -9 10 -9 0
-16 -4 -16 -10z"/>
<path d="M6476 4638 c7 -10 43 -9 69 2 14 6 7 8 -27 7 -25 -1 -44 -5 -42 -9z"/>
<path d="M6695 4640 c3 -5 8 -10 11 -10 2 0 4 5 4 10 0 6 -5 10 -11 10 -5 0
-7 -4 -4 -10z"/>
<path d="M6738 4622 l4 -28 59 10 c47 8 59 14 59 28 0 20 -11 23 -27 7 -8 -8
-13 -8 -17 0 -4 6 -24 11 -45 11 -35 0 -37 -2 -33 -28z"/>
<path d="M6905 4620 c-4 -16 -16 -38 -28 -47 -12 -10 -28 -31 -35 -48 -19 -42
-82 -137 -100 -152 -9 -7 -27 -13 -41 -13 -23 -1 -24 -2 -8 -11 9 -6 15 -14
12 -19 -10 -17 59 -22 95 -6 97 41 159 157 144 272 -7 60 -28 73 -39 24z m-5
-130 c0 -5 -4 -10 -10 -10 -5 0 -10 5 -10 10 0 6 5 10 10 10 6 0 10 -4 10 -10z"/>
<path d="M6576 4618 c4 -7 3 -8 -4 -4 -14 8 -102 -3 -102 -13 0 -4 6 -14 13
-23 9 -13 24 -15 65 -11 49 5 52 7 52 34 0 20 -5 29 -16 29 -9 0 -12 -5 -8
-12z"/>
<path d="M6700 4605 c0 -8 4 -15 10 -15 5 0 7 7 4 15 -4 8 -8 15 -10 15 -2 0
-4 -7 -4 -15z"/>
<path d="M5546 4557 c3 -10 9 -15 12 -12 3 3 0 11 -7 18 -10 9 -11 8 -5 -6z"/>
<path d="M6717 4556 c-4 -10 -1 -13 8 -9 8 3 12 9 9 14 -7 12 -11 11 -17 -5z"/>
<path d="M6487 4527 c-8 -6 -5 -7 6 -3 12 4 21 -2 29 -19 13 -29 23 -32 32 -7
3 9 9 22 12 29 6 14 -60 13 -79 0z"/>
<path d="M6580 4530 c0 -5 4 -10 9 -10 6 0 13 5 16 10 3 6 -1 10 -9 10 -9 0
-16 -4 -16 -10z"/>
<path d="M4326 4523 c-8 -8 16 -53 28 -53 6 0 18 5 26 11 13 9 13 10 -2 6 -9
-3 -22 2 -30 11 -10 12 -10 14 0 8 7 -4 20 -2 29 6 9 7 14 8 11 3 -4 -7 7 -10
30 -7 36 3 36 2 17 -13 l-20 -17 20 4 c11 2 21 12 23 23 2 18 -3 20 -62 21
-36 1 -67 -1 -70 -3z"/>
<path d="M6560 4499 c0 -5 5 -7 10 -4 6 3 10 8 10 11 0 2 -4 4 -10 4 -5 0 -10
-5 -10 -11z"/>
<path d="M6675 4503 c-11 -3 -31 -16 -44 -29 l-23 -24 26 -10 c45 -17 83 -12
111 14 l26 24 -32 16 c-18 9 -35 15 -38 15 -3 -1 -15 -4 -26 -6z"/>
<path d="M4135 4493 c-11 -2 -30 -6 -42 -8 -15 -4 -20 -10 -16 -25 5 -20 43
-29 43 -10 0 6 -6 10 -12 10 -9 0 -8 4 2 10 8 5 24 9 35 9 l20 0 -20 -9 c-13
-6 -15 -9 -5 -9 12 -1 12 -3 2 -9 -8 -6 -2 -9 17 -9 24 0 30 5 33 29 5 29 -4
33 -57 21z"/>
<path d="M4025 4460 c4 -19 12 -39 17 -45 7 -7 9 1 4 25 -3 19 -11 39 -17 45
-8 7 -9 0 -4 -25z"/>
<path d="M4296 4475 c4 -8 8 -15 10 -15 2 0 4 7 4 15 0 8 -4 15 -10 15 -5 0
-7 -7 -4 -15z"/>
<path d="M5403 4468 c2 -7 10 -13 17 -13 7 0 15 6 18 13 2 7 -5 12 -18 12 -13
0 -20 -5 -17 -12z"/>
<path d="M4306 4423 c-6 -14 -5 -15 5 -6 7 7 10 15 7 18 -3 3 -9 -2 -12 -12z"/>
<path d="M6577 4389 c7 -7 15 -10 18 -7 3 3 -2 9 -12 12 -14 6 -15 5 -6 -5z"/>
<path d="M6624 4365 c11 -8 25 -15 30 -15 6 0 2 7 -8 15 -11 8 -25 15 -30 15
-6 0 -2 -7 8 -15z"/>
<path d="M4244 4348 c-46 -34 -48 -37 -28 -38 80 -6 104 -3 124 15 20 18 20
20 4 32 -27 19 -68 16 -100 -9z m56 -28 c0 -5 -4 -10 -10 -10 -5 0 -10 5 -10
10 0 6 5 10 10 10 6 0 10 -4 10 -10z"/>
<path d="M2800 4293 c-11 -21 -28 -49 -37 -63 -14 -20 -15 -23 -2 -13 17 13
74 113 65 113 -3 0 -15 -17 -26 -37z"/>
<path d="M3340 4327 c0 -3 12 -12 26 -22 15 -9 23 -12 20 -6 -7 11 -46 35 -46
28z"/>
<path d="M4150 4276 c0 -2 7 -7 16 -10 8 -3 12 -2 9 4 -6 10 -25 14 -25 6z"/>
<path d="M6535 4245 c2 -22 7 -110 11 -195 5 -120 3 -171 -9 -226 -13 -59 -41
-138 -64 -176 -2 -5 -2 -8 1 -8 11 0 57 102 73 163 21 78 20 288 -1 402 -8 44
-13 62 -11 40z"/>
<path d="M1825 4224 c-31 -28 -31 -29 8 -38 19 -4 26 -3 22 4 -3 5 0 11 7 11
7 1 27 3 43 5 28 3 29 2 11 -12 -11 -8 -15 -14 -10 -14 6 0 20 10 32 23 l22
24 -25 11 c-41 19 -80 14 -110 -14z m100 6 c4 -6 -7 -10 -25 -10 -17 0 -41 -5
-52 -11 -16 -9 -19 -8 -16 2 7 22 82 37 93 19z"/>
<path d="M6692 4225 c0 -16 2 -22 5 -12 2 9 2 23 0 30 -3 6 -5 -1 -5 -18z"/>
<path d="M6702 4127 c-2 -52 24 -193 40 -217 8 -12 9 -12 4 2 -9 28 -35 179
-39 223 -4 39 -4 38 -5 -8z"/>
<path d="M990 4156 c0 -2 8 -10 18 -17 15 -13 16 -12 3 4 -13 16 -21 21 -21
13z"/>
<path d="M1800 4120 c8 -5 20 -10 25 -10 6 0 3 5 -5 10 -8 5 -19 10 -25 10 -5
0 -3 -5 5 -10z"/>
<path d="M5364 4096 c-57 -26 -90 -64 -128 -145 -43 -94 -51 -168 -37 -358 22
-292 24 -354 12 -366 -19 -19 -13 -24 45 -42 36 -11 69 -15 95 -11 l39 6 0
-128 c0 -174 -17 -233 -115 -402 -23 -39 -23 -42 -4 -20 12 14 42 66 66 116
46 94 72 202 73 299 0 51 -22 250 -41 365 -5 36 -11 72 -12 80 -1 8 -10 26
-19 40 -37 54 -75 192 -49 176 7 -5 8 -1 4 10 -4 12 -2 15 8 12 8 -3 13 -13
13 -22 -2 -14 6 -16 39 -14 44 3 60 22 26 31 -12 3 -18 10 -14 17 5 8 12 6 25
-5 10 -9 21 -12 24 -7 11 19 -53 36 -90 24 -29 -9 -36 -8 -41 4 -3 8 -3 17 -1
20 3 2 63 7 134 9 71 3 144 9 163 15 19 5 37 7 40 5 2 -3 0 -5 -5 -5 -6 0 -26
-15 -45 -33 l-36 -34 14 -44 c7 -24 11 -52 9 -62 -2 -9 0 -14 6 -11 5 4 7 18
4 33 -17 80 -17 89 -6 96 6 4 14 4 18 0 3 -3 0 -10 -8 -15 -20 -13 -8 -12 45
1 33 8 45 17 49 35 4 13 11 24 16 24 14 0 12 -13 -2 -29 -11 -10 -10 -12 2 -9
12 2 15 -7 14 -44 0 -26 3 -45 8 -42 4 3 8 24 8 48 0 23 3 46 7 49 11 12 33
-14 33 -40 0 -38 -28 -96 -44 -90 -9 4 -17 -7 -25 -31 -6 -20 -29 -65 -50 -99
-30 -47 -48 -64 -73 -72 -18 -5 -28 -10 -22 -10 8 -1 10 -37 6 -118 -10 -252
59 -443 190 -527 38 -24 35 -21 -20 29 -85 77 -119 148 -148 310 -17 99 -17
95 3 95 36 0 239 54 260 69 40 30 45 48 24 89 -21 42 -51 165 -51 211 0 17 -4
50 -10 73 -5 24 -19 88 -31 143 -36 164 -111 277 -208 310 -64 22 -127 19
-187 -9z m286 -316 c0 -5 -4 -10 -10 -10 -5 0 -10 5 -10 10 0 6 5 10 10 10 6
0 10 -4 10 -10z m-38 -32 c-7 -7 -12 -8 -12 -2 0 14 12 26 19 19 2 -3 -1 -11
-7 -17z m-354 -35 c15 -28 25 -103 14 -103 -14 0 -27 20 -40 58 -17 50 5 86
26 45z"/>
<path d="M1895 3905 c8 -243 56 -358 191 -455 64 -46 54 -31 -21 29 -47 38
-71 67 -90 107 -40 85 -66 197 -75 329 l-9 120 4 -130z"/>
<path d="M1728 3920 c11 -135 7 -310 -7 -370 -14 -56 -68 -173 -102 -222 -29
-40 -23 -47 7 -7 26 35 82 146 104 209 20 55 23 301 6 395 l-14 80 6 -85z"/>
<path d="M2999 3933 c-68 -10 -159 -134 -159 -215 0 -45 -5 -47 -32 -13 -10
13 -54 41 -96 61 -42 20 -100 47 -127 60 -58 28 -131 32 -174 10 -29 -16 -91
-80 -91 -96 0 -5 -10 -12 -22 -15 -61 -19 -105 -98 -92 -164 7 -34 54 -88 89
-101 11 -4 70 -18 130 -30 61 -12 121 -28 133 -37 30 -19 57 -80 72 -161 11
-62 11 -63 -18 -100 -36 -46 -102 -150 -102 -160 0 -30 -28 -27 -168 14 -81
24 -157 44 -168 44 -12 0 -33 -9 -48 -21 l-26 -21 -31 27 c-104 86 -209 88
-336 5 -53 -35 -90 -81 -119 -150 -17 -41 -19 -84 -25 -480 -6 -463 -11 -517
-70 -756 -11 -47 -19 -87 -17 -89 4 -4 342 16 347 21 2 2 -4 13 -15 25 -18 20
-18 20 11 14 29 -6 28 -4 -20 41 -27 26 -39 39 -25 30 36 -23 57 -20 29 4
l-24 21 33 -16 c18 -9 37 -13 42 -10 13 8 1 35 -16 35 -8 0 -14 5 -14 10 0 6
-6 10 -14 10 -8 0 -16 7 -20 15 -4 11 3 10 32 -5 40 -22 52 -24 52 -12 0 5
-15 16 -32 25 -29 14 -31 16 -10 16 13 1 32 -4 43 -9 15 -8 19 -8 17 2 -4 19
-19 28 -53 29 -27 1 -25 2 13 12 51 12 54 23 7 31 -50 10 -56 28 -6 20 37 -6
41 -5 41 15 0 14 -6 21 -19 21 -36 0 -31 17 7 23 l37 6 -4 48 c-3 45 -4 46
-17 22 -14 -23 -14 -22 -12 23 1 25 -3 52 -9 60 -19 24 -43 113 -53 194 -5 43
-13 92 -19 107 -18 47 -13 49 49 17 33 -16 69 -30 80 -30 19 0 20 -6 20 -157
1 -146 6 -193 36 -292 5 -19 4 -22 -6 -16 -9 6 -11 4 -6 -4 5 -7 11 -10 14 -7
12 12 52 -76 47 -102 -4 -20 -3 -22 3 -9 7 17 9 17 21 4 9 -12 10 -21 2 -36
-6 -11 -11 -28 -10 -38 0 -16 1 -16 9 2 4 12 16 27 26 35 16 14 17 13 12 -7
-5 -17 -2 -23 11 -23 16 0 17 -6 9 -57 -5 -31 -11 -60 -14 -65 -3 -4 20 -8 50
-8 69 0 124 -30 133 -71 6 -30 112 -162 138 -173 9 -3 25 -6 35 -6 12 0 21
-10 25 -31 10 -45 76 -107 130 -121 34 -9 50 -21 65 -45 19 -33 74 -68 90 -58
16 10 12 -38 -15 -162 -14 -65 -28 -130 -31 -145 l-6 -27 78 3 c44 2 89 4 100
5 15 1 34 23 68 81 25 44 46 83 46 88 0 4 7 18 16 31 l16 22 22 -20 c28 -26
179 -65 225 -57 19 3 42 15 53 26 l19 21 29 -25 c16 -13 54 -36 85 -51 30 -15
67 -41 80 -57 14 -16 25 -25 25 -20 0 5 -17 25 -39 45 l-38 35 118 7 c96 5
123 11 144 27 17 13 32 17 47 12 33 -11 79 -6 105 11 12 8 31 15 42 15 40 0
133 43 166 76 19 19 36 34 38 34 4 0 17 -65 20 -105 1 -11 -3 -19 -10 -17 -16
3 -17 -14 -2 -24 6 -3 14 -1 18 5 10 15 61 -60 62 -91 1 -16 3 -18 6 -6 4 15
13 12 71 -18 37 -18 78 -34 92 -33 l25 1 -26 8 c-39 11 -131 59 -153 78 -31
29 -66 97 -72 144 -6 43 -5 45 20 50 15 3 29 1 32 -3 9 -15 46 -10 60 9 12 15
15 15 23 2 6 -8 13 -11 17 -7 11 10 -16 37 -37 37 -11 0 -19 7 -19 15 0 9 9
15 23 15 30 0 166 96 180 127 6 14 27 33 47 43 140 71 160 219 40 295 -22 14
-40 29 -40 35 0 5 -27 23 -60 41 -33 17 -60 36 -60 40 0 5 23 9 52 9 48 0 55
-3 103 -49 131 -124 375 -179 510 -115 82 38 118 99 91 152 -20 38 -32 42
-124 42 -72 0 -156 20 -211 49 -11 6 -41 42 -67 79 -26 37 -59 79 -72 94 -24
26 -25 31 -18 106 8 100 -9 470 -29 622 -9 63 -25 144 -37 180 -36 109 -137
265 -195 301 -21 13 -74 57 -118 98 -81 75 -195 156 -253 180 -37 15 -38 21
-16 63 9 16 11 28 6 24 -5 -3 -15 -18 -21 -34 l-12 -29 -82 33 c-144 58 -260
78 -445 79 l-162 0 0 26 c0 14 -9 34 -20 44 -13 12 -20 31 -20 54 0 43 -36
123 -76 170 -50 60 -127 81 -235 64z m101 -116 c108 -66 200 -145 200 -173 0
-15 -52 9 -126 57 -111 73 -174 127 -168 144 7 16 37 7 94 -28z m-505 -61 c27
-14 69 -32 93 -42 111 -45 199 -205 254 -459 19 -89 22 -141 27 -475 l6 -375
200 -5 c129 -3 207 -9 221 -17 33 -19 54 -59 54 -104 0 -33 -6 -47 -34 -75
l-34 -34 -294 0 c-272 0 -295 1 -325 20 -59 36 -58 22 -63 565 -6 483 -7 502
-28 567 -39 117 -59 131 -247 168 -107 22 -140 38 -157 75 -16 35 7 82 51 105
20 10 50 39 68 64 50 71 96 76 208 22z m667 -128 c4 -10 11 -10 33 0 34 15 52
3 37 -24 -6 -11 -14 -28 -18 -39 -7 -17 -9 -15 -12 13 -2 18 -7 30 -11 28 -4
-3 -33 -6 -64 -7 -45 -2 -57 -6 -52 -17 3 -7 5 -20 5 -29 0 -10 6 -13 18 -9
14 5 14 4 -2 -9 -27 -21 -46 -19 -46 5 0 19 -4 20 -37 14 -50 -9 -55 -12 -48
-33 8 -26 -12 -36 -70 -36 -68 0 -74 19 -7 23 50 3 52 4 52 33 0 33 1 33 -71
19 -29 -6 -57 -6 -61 -2 -12 12 2 43 16 35 17 -11 46 -14 46 -5 0 4 21 7 48 6
30 -2 46 -7 44 -15 -2 -7 4 -9 13 -5 9 3 30 6 46 6 20 0 28 4 23 11 -9 15 14
29 49 29 16 0 26 4 22 10 -3 6 5 10 19 10 13 0 26 -6 28 -12z m-977 -707 c58
-19 91 -35 93 -45 6 -27 -22 -28 -104 -2 -43 14 -81 22 -85 18 -3 -4 -11 -26
-18 -49 -11 -39 -28 -53 -44 -37 -6 6 19 97 34 127 13 22 18 22 124 -12z
m1873 -76 c72 -29 73 -37 72 -412 0 -181 2 -338 6 -347 5 -13 20 -16 73 -16
175 0 339 -90 443 -243 73 -107 157 -147 310 -147 73 0 90 -3 95 -16 10 -25
-8 -47 -61 -73 -40 -20 -62 -24 -119 -23 -145 4 -252 48 -357 147 -113 106
-173 125 -394 125 -72 0 -141 3 -153 6 l-23 6 0 387 c0 238 -4 400 -11 424 -5
21 -23 52 -39 70 l-29 33 20 33 c20 33 67 60 106 61 13 0 40 -7 61 -15z
m-2106 -50 c7 -26 3 -34 -29 -67 -22 -23 -31 -38 -23 -38 21 0 18 -93 -4 -115
-19 -19 -22 -32 -3 -17 9 7 17 4 30 -13 19 -26 8 -42 -19 -27 -23 13 -53 4
-89 -26 -29 -24 -34 -36 -17 -38 71 -9 89 -18 99 -45 10 -25 9 -29 -5 -31 -52
-4 -125 25 -186 75 l-29 23 37 -4 c24 -3 36 0 36 8 0 7 6 10 13 7 9 -3 13 2
12 16 -1 12 2 28 8 35 7 9 1 12 -27 12 -22 0 -35 -4 -31 -10 3 -5 2 -10 -4
-10 -5 0 -12 6 -15 13 -3 6 -4 -3 -2 -22 3 -31 2 -32 -11 -15 -12 16 -15 17
-23 4 -7 -11 -11 -10 -18 10 -5 14 -13 39 -16 57 -4 17 -14 38 -23 45 -14 11
-15 10 -9 -10 3 -12 9 -31 12 -42 9 -33 -12 -23 -30 14 -18 39 -21 82 -5 91 6
4 13 -2 16 -13 3 -13 11 -18 19 -15 8 3 11 9 8 14 -8 14 19 10 39 -5 17 -13
62 -11 82 4 12 9 46 7 64 -5 10 -5 12 -4 7 3 -4 7 -3 12 3 12 5 0 11 -6 14
-12 3 -10 8 -9 22 2 11 9 16 10 11 3 -4 -8 -1 -13 8 -13 32 0 -4 41 -39 44 -5
1 -11 17 -12 37 -3 51 25 49 33 -3 9 -53 19 -38 19 27 0 38 -3 51 -12 48 -7
-3 -13 0 -13 5 0 6 12 12 28 14 56 7 65 4 74 -27z m-178 -27 c8 -40 -5 -54
-34 -38 -26 14 -50 7 -50 -15 0 -25 -17 -17 -27 13 -14 38 -6 52 27 52 16 0
32 5 35 10 14 23 43 10 49 -22z m419 -68 c19 -21 27 -41 27 -66 0 -108 -116
-158 -201 -87 -25 21 -29 32 -29 75 0 27 5 58 11 69 30 56 144 62 192 9z
m1643 15 c52 -34 53 -40 55 -604 1 -287 -2 -525 -6 -529 -12 -12 -317 -7 -347
6 -47 20 -46 54 2 109 84 95 80 70 80 535 0 396 1 414 20 446 11 18 35 40 53
48 39 18 107 13 143 -11z m-605 -2 c19 -12 67 -79 140 -198 62 -99 131 -211
155 -249 l44 -70 0 -186 c0 -103 -3 -190 -7 -193 -6 -7 -44 48 -160 234 l-60
95 23 27 c55 64 55 152 1 214 -49 55 -78 63 -237 63 l-140 0 0 85 c0 102 16
147 62 175 43 26 137 27 179 3z m-1471 -7 c0 -3 -4 -8 -10 -11 -5 -3 -10 -1
-10 4 0 6 5 11 10 11 6 0 10 -2 10 -4z m-25 -26 c3 -5 -1 -10 -9 -10 -9 0 -16
5 -16 10 0 6 4 10 9 10 6 0 13 -4 16 -10z m-50 -18 c-3 -3 -11 0 -18 7 -9 10
-8 11 6 5 10 -3 15 -9 12 -12z m205 -202 c0 -5 -4 -10 -9 -10 -6 0 -13 5 -16
10 -3 6 1 10 9 10 9 0 16 -4 16 -10z m318 -22 c2 -11 -21 -33 -72 -68 -42 -28
-76 -53 -76 -56 0 -3 33 -4 72 -2 61 2 73 0 76 -14 2 -9 -1 -18 -5 -21 -4 -3
-55 -7 -113 -9 -100 -3 -105 -2 -108 18 -2 16 15 32 74 72 42 29 73 53 68 54
-5 0 -40 2 -79 2 -57 1 -70 4 -73 18 -4 21 24 26 143 24 76 -1 90 -4 93 -18z
m-14 -239 c29 -14 56 -65 56 -107 0 -29 -21 -62 -40 -62 -15 0 -23 21 -11 33
13 13 14 56 3 74 -11 18 -54 30 -84 24 -64 -14 -88 -71 -46 -111 30 -27 38
-25 38 9 0 58 28 44 44 -21 7 -32 -6 -42 -71 -53 -36 -6 -43 -4 -43 9 0 9 5
16 12 16 6 0 2 10 -9 23 -30 31 -39 91 -20 120 31 48 116 71 171 46z m1056
-244 c0 -91 5 -209 11 -262 14 -132 21 -128 -179 -128 -134 0 -162 3 -185 18
-40 26 -35 59 17 115 72 78 76 91 76 267 l0 155 130 0 130 0 0 -165z m-970 17
c0 -9 -68 -47 -75 -41 -8 8 10 24 40 36 17 6 31 11 33 12 1 1 2 -2 2 -7z m35
-189 c-19 -35 -35 -66 -35 -69 0 -2 23 7 51 22 55 27 79 26 79 -5 0 -14 -24
-34 -87 -71 -89 -52 -104 -55 -122 -22 -10 20 -7 29 39 106 l23 38 -24 -7
c-13 -4 -33 -14 -44 -21 -29 -20 -53 -17 -61 8 -8 26 1 33 110 91 l71 38 18
-22 c17 -21 16 -24 -18 -86z m-805 -46 c-6 -35 -16 -70 -22 -78 -8 -11 -9 -11
-4 4 3 9 11 47 17 83 6 36 14 63 16 60 3 -3 0 -34 -7 -69z m990 -124 c56 -64
63 -78 45 -93 -11 -10 -21 -4 -53 31 -23 24 -44 39 -51 35 -15 -9 -14 -22 2
-38 33 -33 41 -78 14 -78 -7 0 -24 14 -38 32 -18 21 -32 29 -43 25 -23 -9 -20
-22 15 -62 30 -34 34 -66 7 -64 -16 0 -108 107 -108 125 0 16 136 134 154 134
8 0 33 -21 56 -47z m-792 2 c-3 -3 -9 2 -12 12 -6 14 -5 15 5 6 7 -7 10 -15 7
-18z m2701 -71 c-6 -8 -21 -14 -34 -14 -27 0 -59 -34 -52 -55 9 -21 26 -19 72
10 49 30 65 31 99 4 38 -30 34 -63 -13 -110 -40 -41 -79 -50 -100 -26 -14 18
-4 27 29 27 32 0 75 42 67 64 -9 22 -28 20 -85 -10 -43 -22 -53 -24 -73 -13
-30 15 -39 28 -39 55 0 50 84 113 123 92 15 -7 16 -12 6 -24z m-1751 -88 c50
-26 73 -106 36 -120 -22 -8 -46 12 -39 34 3 10 -3 25 -16 35 -19 18 -23 18
-47 4 -15 -8 -33 -27 -42 -42 -20 -36 -4 -61 43 -65 38 -3 55 -25 36 -48 -26
-32 -102 -5 -133 46 -20 35 -20 63 -1 100 33 64 102 88 163 56z m1589 -23 c2
-5 -17 -25 -41 -44 -25 -19 -46 -37 -46 -40 0 -3 6 -14 14 -24 13 -18 15 -18
49 8 20 15 43 27 51 27 28 0 17 -24 -24 -53 -39 -27 -39 -29 -24 -53 16 -24
29 -30 36 -16 5 12 76 62 87 62 6 0 11 -8 11 -17 -1 -17 -109 -103 -129 -103
-12 0 -121 155 -121 172 0 15 111 99 124 95 6 -2 11 -8 13 -14z m-1438 -91 c6
-12 5 -25 -5 -42 -20 -38 -17 -40 27 -25 60 22 89 20 89 -6 0 -13 -11 -25 -35
-34 -34 -15 -34 -16 -37 -82 -3 -65 -4 -68 -28 -68 -19 0 -26 6 -28 25 -10 98
-21 109 -57 64 -16 -20 -26 -25 -43 -20 -30 10 -28 20 14 101 55 105 81 127
103 87z m1294 -107 c47 -87 55 -109 38 -120 -14 -8 -35 17 -80 99 -45 83 -50
106 -23 106 13 0 33 -27 65 -85z m-117 -7 c12 -11 27 -39 34 -63 18 -64 -5
-106 -72 -134 -28 -12 -56 -21 -63 -21 -11 0 -54 95 -79 176 -8 26 5 37 64 57
51 18 85 13 116 -15z m-960 7 c8 -20 -58 -186 -79 -199 -12 -8 -20 -7 -32 5
-15 14 -14 22 9 81 37 100 54 128 77 128 11 0 22 -7 25 -15z m172 -46 c53 -11
77 -34 52 -49 -7 -4 -27 -4 -44 1 -48 14 -66 11 -66 -10 0 -14 10 -21 36 -25
35 -7 54 -30 38 -46 -5 -5 -26 -5 -49 0 -45 10 -42 11 -47 -14 -2 -16 6 -21
47 -30 48 -11 71 -35 46 -50 -12 -8 -140 20 -157 35 -9 7 -8 29 7 96 21 96 33
117 63 109 12 -3 45 -10 74 -17z m559 -94 c29 -49 53 -94 53 -98 0 -20 -34
-19 -50 3 -15 19 -22 21 -58 15 -36 -6 -42 -10 -42 -31 0 -26 -25 -43 -41 -27
-5 5 -1 50 11 118 11 60 20 111 20 113 0 2 12 2 27 0 22 -2 36 -19 80 -93z
m-303 53 c3 -13 6 -56 6 -95 l0 -73 53 0 c59 0 72 -6 56 -27 -17 -20 -145 -18
-153 3 -8 21 -8 199 1 207 13 14 31 6 37 -15z m771 -87 c3 -5 1 -12 -5 -16 -5
-3 -10 1 -10 9 0 18 6 21 15 7z m-1470 -146 c-4 -25 -9 -44 -12 -41 -2 2 -1
25 2 51 4 25 9 44 12 41 2 -2 1 -25 -2 -51z"/>
<path d="M2467 3727 c-24 -17 -12 -49 17 -45 15 2 21 10 21 27 0 29 -14 36
-38 18z"/>
<path d="M1800 2631 c-38 -5 -44 -9 -42 -26 5 -29 12 -32 70 -27 50 4 52 5 52
33 0 31 2 31 -80 20z"/>
<path d="M1976 2615 c4 -8 8 -15 10 -15 2 0 4 7 4 15 0 8 -4 15 -10 15 -5 0
-7 -7 -4 -15z"/>
<path d="M1770 2540 c-8 -5 -12 -12 -9 -15 4 -3 12 1 19 10 14 17 11 19 -10 5z"/>
<path d="M2147 2678 c-26 -21 -31 -61 -10 -86 25 -31 85 -40 118 -18 33 22 35
78 3 100 -27 19 -88 21 -111 4z"/>
<path d="M3977 1208 c-21 -7 -27 -15 -22 -27 4 -9 16 -40 28 -69 19 -49 22
-53 46 -47 38 10 51 24 51 57 0 33 -16 67 -39 85 -19 15 -27 15 -64 1z"/>
<path d="M3776 1118 c-8 -32 -8 -78 2 -78 4 0 17 3 29 6 20 6 21 7 6 42 -20
50 -29 57 -37 30z"/>
<path d="M609 3881 c-68 -7 -153 -61 -193 -121 -37 -57 -81 -171 -110 -291
-15 -62 -32 -108 -42 -114 -8 -5 -24 -17 -35 -26 -18 -16 -18 -17 1 -55 28
-54 136 -161 191 -189 25 -13 68 -25 95 -27 l49 -3 8 -50 c4 -28 8 -115 9
-195 1 -165 -9 -207 -87 -360 -24 -47 -35 -74 -23 -60 26 32 81 141 102 204 9
27 19 83 22 125 3 42 7 88 9 104 3 15 1 27 -3 27 -4 0 -8 30 -9 68 -2 37 -9
103 -17 147 -8 44 -17 101 -21 126 l-6 46 78 -39 c43 -22 86 -37 96 -34 17 4
18 0 12 -46 -5 -33 -4 -48 3 -44 5 3 32 2 59 -3 74 -14 169 7 201 45 28 35 84
119 112 171 11 21 31 56 44 78 l23 39 -39 28 c-39 29 -123 148 -171 244 -32
63 -118 154 -172 182 -49 24 -110 32 -186 23z m113 -269 l66 -76 -36 -31 c-34
-30 -35 -33 -24 -65 7 -18 12 -45 12 -59 1 -22 2 -24 11 -9 7 12 6 24 -1 37
-14 28 -12 57 6 75 20 21 41 21 24 1 -10 -12 -9 -15 4 -15 10 0 26 5 36 10 13
7 27 6 45 -2 22 -10 26 -17 21 -40 -3 -18 -2 -27 4 -23 6 3 10 17 10 31 0 18
5 24 21 24 15 0 19 -5 15 -17 -3 -10 -8 -30 -12 -45 -4 -17 -13 -28 -23 -28
-11 0 -26 -18 -39 -47 -43 -92 -74 -135 -109 -150 -33 -13 -38 -12 -104 18
-87 40 -142 97 -163 170 -25 82 -25 82 44 74 51 -6 60 -5 60 9 0 20 9 20 32
-1 10 -9 18 -11 18 -5 0 6 -9 20 -20 30 -19 18 -19 19 -2 38 10 10 18 33 18
49 0 77 5 125 12 124 4 0 37 -35 74 -77z m-276 -160 c6 -4 15 -26 19 -49 5
-35 4 -43 -8 -43 -15 0 -37 48 -37 81 0 20 8 23 26 11z"/>
<path d="M737 3334 c-3 -3 -11 -7 -19 -8 -55 -10 -89 -46 -66 -73 22 -27 56
-34 92 -19 41 17 50 30 42 61 -6 24 -38 49 -49 39z m-2 -64 c3 -5 1 -10 -4
-10 -6 0 -11 5 -11 10 0 6 2 10 4 10 3 0 8 -4 11 -10z"/>
<path d="M6756 3870 c15 -58 96 -146 186 -203 46 -29 46 -19 0 12 -66 43 -140
119 -168 170 -13 25 -22 35 -18 21z"/>
<path d="M5422 3714 c-14 -16 -5 -18 17 -5 7 5 9 11 5 14 -5 3 -15 -1 -22 -9z"/>
<path d="M6977 3615 c-21 -45 -21 -45 3 -45 17 0 20 7 20 40 0 22 -1 40 -3 40
-2 0 -11 -16 -20 -35z"/>
<path d="M5504 3551 c-54 -25 -61 -37 -23 -45 53 -10 75 -7 103 15 47 37 -14
59 -80 30z"/>
<path d="M4246 3541 c-3 -5 0 -11 8 -14 15 -6 26 1 26 15 0 11 -27 10 -34 -1z"/>
<path d="M4550 3534 c0 -4 81 -44 89 -44 3 0 0 5 -7 12 -11 11 -82 39 -82 32z"/>
<path d="M5382 3484 c10 -10 20 -16 22 -13 3 3 -5 11 -17 18 -21 13 -21 12 -5
-5z"/>
<path d="M5467 3439 c7 -7 15 -10 18 -7 3 3 -2 9 -12 12 -14 6 -15 5 -6 -5z"/>
<path d="M2168 3364 c-10 -19 -18 -38 -18 -42 0 -4 27 -5 60 -4 33 2 60 7 60
11 0 11 -64 71 -75 71 -6 0 -18 -16 -27 -36z"/>
<path d="M6629 3317 c-83 -30 -129 -65 -168 -125 -62 -98 -64 -110 -65 -396
-1 -143 1 -310 3 -371 4 -117 -26 -349 -70 -536 -11 -50 -19 -91 -17 -93 1 -1
143 6 313 15 171 10 325 18 343 18 l32 1 0 495 c0 491 0 495 -20 483 -15 -10
-22 -10 -32 0 -10 10 -10 14 1 21 7 5 11 13 7 19 -12 19 17 25 31 7 12 -17 13
-15 13 23 0 23 -4 42 -8 42 -5 0 -14 11 -20 25 -13 28 1 35 17 8 8 -13 10 5
11 70 l0 88 -50 75 c-94 138 -191 178 -321 131z m261 -241 c0 -3 -19 -17 -42
-33 -72 -48 -70 -48 -66 -22 1 13 7 22 12 21 5 -2 12 0 15 5 12 17 81 42 81
29z m33 -40 c4 -10 -8 -20 -40 -32 -25 -10 -59 -29 -75 -42 -19 -16 -28 -19
-28 -10 0 26 91 96 126 98 7 0 14 -6 17 -14z m-275 -9 c21 -1 50 -33 40 -43
-3 -2 -22 3 -44 10 -21 8 -47 17 -57 20 -26 8 -11 27 16 21 12 -3 32 -7 45 -8z
m-3 -48 c39 -20 65 -45 65 -61 0 -5 -13 1 -30 14 -22 16 -45 22 -85 22 -30 1
-55 4 -55 9 0 4 0 14 0 22 0 22 58 19 105 -6z m255 5 c0 -7 -43 -43 -52 -44
-3 0 3 11 15 25 21 23 37 32 37 19z m40 -2 c0 -10 -22 -32 -32 -32 -5 0 -3 9
4 20 13 20 28 27 28 12z m-115 -42 c3 -5 -1 -10 -10 -10 -9 0 -13 5 -10 10 3
6 8 10 10 10 2 0 7 -4 10 -10z m-230 -10 c3 -5 1 -10 -4 -10 -6 0 -11 5 -11
10 0 6 2 10 4 10 3 0 8 -4 11 -10z m-30 -20 c10 -11 15 -20 11 -20 -14 0 -46
21 -46 30 0 16 16 11 35 -10z m-79 -5 c10 -25 -7 -40 -23 -20 -7 11 -13 22
-13 27 0 14 30 9 36 -7z m194 5 c0 -5 -7 -10 -16 -10 -8 0 -12 5 -9 10 3 6 10
10 16 10 5 0 9 -4 9 -10z m-150 -86 c14 -36 13 -44 -9 -44 -26 0 -34 15 -27
46 8 31 24 31 36 -2z m235 -34 c3 -5 1 -10 -4 -10 -6 0 -11 5 -11 10 0 6 2 10
4 10 3 0 8 -4 11 -10z m35 -74 c0 -3 -4 -8 -10 -11 -5 -3 -10 -1 -10 4 0 6 5
11 10 11 6 0 10 -2 10 -4z m-383 -518 c-2 -13 -4 -5 -4 17 -1 22 1 32 4 23 2
-10 2 -28 0 -40z m13 -175 c-1 -5 -7 -33 -15 -63 l-15 -55 5 49 c3 27 5 55 5
62 0 8 5 14 10 14 6 0 10 -3 10 -7z m270 -43 c0 -5 -2 -10 -4 -10 -3 0 -8 5
-11 10 -3 6 -1 10 4 10 6 0 11 -4 11 -10z m222 -22 c-7 -7 -12 -8 -12 -2 0 14
12 26 19 19 2 -3 -1 -11 -7 -17z m-172 2 c0 -13 -11 -13 -30 0 -12 8 -11 10 8
10 12 0 22 -4 22 -10z m125 -55 c-16 -13 -31 -22 -33 -20 -2 2 9 15 24 29 16
13 31 22 33 20 2 -2 -9 -15 -24 -29z m-179 -2 c-6 -6 -36 9 -36 18 0 5 9 4 20
-3 10 -7 18 -14 16 -15z m64 -17 c0 -3 -4 -8 -10 -11 -5 -3 -10 -1 -10 4 0 6
5 11 10 11 6 0 10 -2 10 -4z m40 -6 c0 -5 -4 -10 -10 -10 -5 0 -10 5 -10 10 0
6 5 10 10 10 6 0 10 -4 10 -10z m30 0 c0 -5 -5 -10 -11 -10 -5 0 -7 5 -4 10 3
6 8 10 11 10 2 0 4 -4 4 -10z m-443 -42 c-3 -8 -6 -5 -6 6 -1 11 2 17 5 13 3
-3 4 -12 1 -19z"/>
<path d="M734 2953 c1 -63 -2 -104 -9 -107 -5 -2 -1 -5 9 -5 11 -1 17 -4 14
-7 -10 -9 31 -146 57 -190 29 -50 123 -137 176 -165 l39 -20 -16 -30 c-8 -17
-13 -33 -11 -36 3 -2 31 -1 62 2 l56 7 -23 25 c-13 14 -42 34 -66 44 -46 20
-143 94 -174 134 -53 68 -96 208 -108 355 l-8 95 2 -102z"/>
<path d="M645 2852 c3 -7 5 -16 5 -18 0 -2 7 -4 15 -4 8 0 15 8 15 18 0 11 -7
18 -20 18 -13 0 -19 -5 -15 -14z"/>
<path d="M5826 2704 c-10 -26 -7 -29 8 -8 14 18 16 18 53 -16 l38 -35 -34 38
c-38 40 -55 46 -65 21z"/>
<path d="M5412 2561 c-46 -30 -60 -63 -38 -96 13 -19 14 -30 6 -45 -15 -29 -4
-56 31 -77 16 -9 29 -20 29 -24 0 -4 -15 -30 -34 -57 -18 -28 -36 -70 -40 -94
-9 -59 -10 -244 -2 -257 4 -6 3 -11 -3 -11 -5 0 -15 8 -20 18 -6 9 -11 13 -11
8 0 -5 17 -25 37 -45 24 -23 34 -29 28 -16 -4 11 -10 38 -13 60 l-4 40 66 1
c80 2 96 5 96 16 0 5 -12 5 -27 2 -24 -6 -26 -5 -15 8 19 24 -37 45 -84 30
-31 -9 -34 -9 -34 11 0 41 13 49 66 42 27 -4 57 -9 68 -12 10 -3 16 -1 13 4
-3 5 -31 15 -62 22 l-56 13 36 44 c20 24 33 48 30 54 -10 16 5 12 32 -10 14
-11 34 -20 44 -20 10 0 21 -4 24 -10 3 -5 15 -10 25 -10 11 0 31 -5 45 -12
l26 -12 -28 -23 -28 -24 32 16 c41 20 56 19 94 -4 l31 -19 -36 1 c-27 1 -43
-6 -64 -26 -14 -15 -21 -27 -14 -27 6 0 12 -5 12 -11 0 -5 -10 -9 -22 -7 -11
2 -23 -2 -25 -9 -4 -11 11 -9 105 12 12 3 22 11 22 19 0 7 8 20 17 27 15 13
16 12 11 -8 -4 -13 -2 -26 4 -29 6 -4 7 -27 3 -60 -7 -59 0 -66 33 -31 27 29
30 89 5 108 -15 11 -16 11 -5 -1 18 -20 15 -74 -5 -99 -18 -22 -18 -21 -15 32
5 72 -22 211 -52 274 -14 28 -41 64 -61 80 -35 30 -35 30 -15 48 15 13 20 30
20 59 -1 23 2 55 5 71 5 27 2 33 -32 54 -32 21 -53 26 -128 29 -77 3 -95 0
-123 -17z m328 -511 c0 -5 -4 -10 -10 -10 -5 0 -10 5 -10 10 0 6 5 10 10 10 6
0 10 -4 10 -10z m-38 -32 c-7 -7 -12 -8 -12 -2 0 14 12 26 19 19 2 -3 -1 -11
-7 -17z m-222 -18 c0 -5 -4 -10 -10 -10 -5 0 -10 5 -10 10 0 6 5 10 10 10 6 0
10 -4 10 -10z m-75 -11 c12 -19 -5 -23 -22 -6 -16 16 -16 17 -1 17 9 0 20 -5
23 -11z"/>
<path d="M625 2233 c-58 -15 -186 -79 -255 -129 -47 -34 -65 -61 -96 -146 -19
-51 -21 -202 -4 -284 16 -74 101 -253 139 -292 43 -42 125 -80 193 -88 l57 -6
5 -42 c20 -164 12 -302 -23 -399 -32 -89 -32 -94 -2 -33 41 81 55 176 48 321
-6 112 -36 328 -52 368 -9 22 -4 21 42 -4 25 -13 30 -14 13 -3 -41 30 -100 94
-100 109 0 11 -8 13 -29 9 -21 -4 -30 -2 -35 11 -3 9 -3 21 0 26 3 5 -4 24
-15 43 -12 18 -21 38 -21 44 0 17 44 23 53 7 8 -16 57 -21 57 -7 0 5 7 9 15 9
8 0 12 -4 9 -9 -3 -4 4 -8 15 -8 12 0 21 4 21 8 0 4 16 6 35 4 40 -5 44 5 14
36 -27 30 -19 38 40 41 l51 1 6 -40 c8 -46 19 -59 27 -30 4 16 14 20 47 20 29
0 48 6 57 18 14 16 14 16 9 0 -7 -22 1 -22 38 -3 39 21 46 9 43 -80 -2 -65 -4
-70 -26 -73 -21 -3 -23 -1 -17 22 4 15 2 26 -4 26 -5 0 -10 -10 -10 -23 0 -38
-51 -129 -99 -177 l-46 -45 -3 -105 c-2 -58 1 -130 6 -160 9 -48 9 -43 5 38
l-6 92 55 0 c93 0 252 63 309 123 44 46 59 79 67 150 16 143 -2 257 -63 382
-59 123 -175 215 -339 270 -84 28 -141 30 -231 8z m224 -416 c-34 -23 -46 -20
-35 8 3 9 18 15 37 15 l32 0 -34 -23z m71 -27 c0 -5 -8 -10 -17 -10 -15 0 -16
2 -3 10 19 12 20 12 20 0z"/>
<path d="M5325 1999 c-4 -6 -5 -12 -2 -15 2 -3 7 2 10 11 7 17 1 20 -8 4z"/>
<path d="M5630 1965 c0 -5 5 -17 10 -25 5 -8 10 -10 10 -5 0 6 -5 17 -10 25
-5 8 -10 11 -10 5z"/>
<path d="M5646 1903 c-6 -14 -5 -15 5 -6 7 7 10 15 7 18 -3 3 -9 -2 -12 -12z"/>
<path d="M5766 1875 c-3 -9 -6 -22 -5 -28 0 -7 5 -1 10 12 5 13 8 26 5 28 -2
2 -6 -3 -10 -12z"/>
<path d="M2020 1850 c0 -5 5 -10 11 -10 5 0 7 5 4 10 -3 6 -8 10 -11 10 -2 0
-4 -4 -4 -10z"/>
<path d="M5606 1851 c-16 -3 -38 -19 -50 -34 l-21 -29 24 -19 c63 -51 171 11
118 69 -21 23 -24 24 -71 13z m58 -18 c6 -4 -4 -10 -24 -14 -19 -4 -46 -10
-60 -14 l-25 -7 21 19 c22 19 68 28 88 16z m-12 -54 c-23 -15 -40 -19 -60 -14
l-27 7 25 13 c14 8 41 14 60 14 l35 1 -33 -21z"/>
<path d="M5400 1837 c0 -4 9 -20 19 -35 30 -42 65 -296 65 -467 1 -164 -10
-211 -84 -355 -27 -52 -48 -95 -46 -97 1 -2 54 3 117 11 63 8 97 14 77 15 -43
1 -47 14 -23 60 22 44 58 204 72 324 4 42 3 47 -15 47 -16 0 -22 10 -31 48 -5
26 -17 61 -26 77 -16 30 -17 29 -12 -45 3 -45 2 -65 -3 -50 -4 14 -8 43 -9 65
-1 41 -37 275 -47 308 -5 15 10 10 75 -23 45 -22 84 -40 88 -39 4 0 10 -8 14
-18 7 -17 8 -16 8 2 1 11 17 33 36 48 19 15 42 42 50 60 15 32 15 32 -2 8 -37
-49 -76 -81 -99 -81 -40 0 -159 66 -193 107 -17 21 -31 34 -31 30z"/>
<path d="M2034 1819 c-3 -6 -1 -16 5 -22 8 -8 11 -5 11 11 0 24 -5 28 -16 11z"/>
<path d="M860 1729 c0 -29 24 -39 74 -33 39 6 47 10 43 25 -3 10 0 20 7 23 6
2 -1 5 -15 5 -19 1 -26 -4 -25 -15 0 -9 -5 -19 -13 -22 -10 -3 -13 1 -9 15 5
17 0 20 -28 19 -24 -1 -34 -6 -34 -17z"/>
<path d="M553 1682 c7 -22 16 -44 21 -49 14 -13 -5 61 -19 76 -12 12 -12 7 -2
-27z"/>
<path d="M665 1710 l-30 -8 29 -1 c28 -1 29 -2 10 -15 -18 -14 -18 -15 9 -21
15 -4 31 -5 34 -1 4 3 -1 6 -11 6 -9 0 -14 5 -11 10 4 6 11 8 16 5 5 -4 9 3 9
14 0 22 -6 23 -55 11z"/>
<path d="M615 1670 c4 -6 11 -8 16 -5 14 9 11 15 -7 15 -8 0 -12 -5 -9 -10z"/>
<path d="M831 1638 c-14 -23 -14 -23 8 -4 22 20 25 26 13 26 -4 0 -13 -10 -21
-22z"/>
<path d="M2073 1644 c-3 -8 -1 -20 6 -27 8 -8 11 -4 9 16 -3 31 -6 34 -15 11z"/>
<path d="M760 1563 l-45 -27 53 -8 c57 -9 112 9 112 36 0 35 -62 34 -120 -1z"/>
<path d="M1870 1580 c0 -5 10 -10 23 -10 18 0 19 2 7 10 -19 13 -30 13 -30 0z"/>
<path d="M2088 1583 c6 -2 18 -2 25 0 6 3 1 5 -13 5 -14 0 -19 -2 -12 -5z"/>
<path d="M6721 1579 c-24 -4 -55 -16 -70 -26 -36 -23 -99 -90 -116 -122 -22
-43 -53 -151 -59 -208 -7 -54 7 -195 26 -271 l11 -43 87 7 c87 7 88 6 93 -17
4 -23 4 -23 6 3 0 16 8 29 19 32 15 5 11 14 -29 57 -31 33 -51 66 -58 94 -15
58 -14 95 2 95 8 0 7 3 -3 10 -20 12 -15 15 65 38 117 34 173 44 241 46 l64 1
0 117 0 118 -37 23 c-69 44 -164 62 -242 46z m-107 -461 c7 -37 2 -45 -19 -28
-15 13 -20 42 -8 53 13 14 21 6 27 -25z"/>
<path d="M5620 1523 c0 -59 34 -252 49 -281 6 -11 8 -28 5 -37 -4 -9 -2 -26 4
-38 6 -12 13 -29 15 -37 3 -8 6 -4 6 10 1 24 2 24 21 -8 22 -36 26 -52 8 -34
-20 20 -24 14 -20 -23 4 -31 6 -34 17 -19 9 13 14 14 20 4 6 -10 9 -9 16 1 6
10 9 8 9 -8 0 -13 4 -23 8 -23 4 0 7 -12 6 -27 -1 -16 -2 -38 -3 -51 0 -13 -5
-21 -11 -17 -6 4 -6 15 0 31 7 17 7 31 0 42 -9 14 -10 14 -5 -5 3 -12 1 -24
-5 -28 -5 -3 -10 -17 -10 -30 0 -13 -6 -26 -12 -29 -7 -3 51 -5 130 -4 78 1
142 5 142 8 0 13 -67 70 -82 70 -19 0 -121 75 -165 121 -62 66 -105 192 -122
358 -11 104 -21 130 -21 54z"/>
<path d="M740 1465 c14 -8 30 -14 35 -14 6 0 -1 6 -15 14 -14 8 -29 14 -35 14
-5 0 1 -6 15 -14z"/>
<path d="M1893 1250 c-18 -11 -33 -23 -34 -27 0 -5 -2 -18 -3 -30 -3 -28 8
-29 36 -4 11 11 37 23 58 26 21 4 46 15 56 26 9 10 27 19 40 19 23 0 57 -36
49 -51 -3 -4 1 -9 9 -12 10 -4 12 0 9 14 -3 11 0 19 6 19 7 0 10 -4 7 -8 -3
-5 2 -9 10 -9 24 0 10 21 -27 39 -50 26 -173 25 -216 -2z m17 -20 c8 -5 11
-10 5 -10 -5 0 -17 5 -25 10 -8 5 -10 10 -5 10 6 0 17 -5 25 -10z"/>
<path d="M6963 1233 c9 -2 23 -2 30 0 6 3 -1 5 -18 5 -16 0 -22 -2 -12 -5z"/>
<path d="M6915 1220 c-3 -6 1 -7 9 -4 18 7 21 14 7 14 -6 0 -13 -4 -16 -10z"/>
<path d="M6688 1203 c7 -3 16 -2 19 1 4 3 -2 6 -13 5 -11 0 -14 -3 -6 -6z"/>
<path d="M2167 1193 c-11 -10 -8 -25 3 -18 6 3 10 2 10 -4 0 -6 11 -21 25 -35
29 -29 31 -26 11 13 -17 33 -40 53 -49 44z"/>
<path d="M6736 1187 c3 -10 9 -15 12 -12 3 3 0 11 -7 18 -10 9 -11 8 -5 -6z"/>
<path d="M4488 1174 c-16 -8 -28 -17 -28 -19 0 -10 16 -4 40 15 30 23 25 25
-12 4z"/>
<path d="M2130 1166 c0 -2 7 -7 16 -10 8 -3 12 -2 9 4 -6 10 -25 14 -25 6z"/>
<path d="M1819 1148 c-1 -7 -2 -19 -3 -26 0 -7 -8 -17 -16 -22 -8 -5 -10 -10
-4 -10 16 0 30 21 32 48 1 23 -7 32 -9 10z"/>
<path d="M6880 1155 c0 -5 5 -17 10 -25 5 -8 10 -10 10 -5 0 6 -5 17 -10 25
-5 8 -10 11 -10 5z"/>
<path d="M4451 1128 c-1 -9 10 -48 23 -86 23 -70 23 -71 4 -91 -10 -12 -14
-21 -9 -21 6 0 18 11 26 24 13 19 14 29 6 45 -23 42 -7 92 29 90 10 0 11 -2 2
-6 -6 -2 -10 -8 -7 -13 9 -14 43 1 59 25 14 22 14 24 -3 30 -22 7 -85 -16 -97
-36 -5 -9 -11 -2 -20 22 -7 18 -13 27 -13 17z m119 -28 c0 -5 -4 -10 -10 -10
-5 0 -10 5 -10 10 0 6 5 10 10 10 6 0 10 -4 10 -10z"/>
<path d="M841 1099 c-1 -25 29 -120 54 -169 25 -48 87 -112 145 -149 33 -21
32 -20 -5 10 -106 88 -141 138 -174 256 -11 37 -20 61 -20 52z"/>
<path d="M2085 1069 c-16 -6 -73 -10 -126 -10 -61 1 -101 -4 -112 -12 -14 -10
0 -12 80 -15 105 -3 226 15 220 32 -5 15 -26 16 -62 5z"/>
<path d="M4630 1032 c0 -43 -25 -119 -54 -163 -14 -21 -26 -42 -26 -45 0 -11
36 38 54 73 10 20 21 30 30 27 7 -3 16 2 19 10 4 10 1 13 -8 10 -11 -5 -13 6
-8 55 3 34 2 61 -1 61 -3 0 -6 -13 -6 -28z"/>
<path d="M6830 1008 l-44 -22 42 -13 c47 -13 78 -6 102 22 12 14 12 18 -1 26
-23 14 -51 11 -99 -13z"/>
<path d="M6959 953 c-23 -36 -26 -43 -9 -28 21 19 55 75 46 75 -3 0 -19 -21
-37 -47z"/>
<path d="M2050 983 c0 -18 20 -66 25 -61 3 3 -1 20 -9 39 -9 19 -15 29 -16 22z"/>
<path d="M2113 973 c-10 -10 -14 -14 -7 -10 7 4 31 12 55 16 l44 9 -36 1 c-22
1 -44 -6 -56 -16z"/>
<path d="M1920 966 c0 -2 7 -7 16 -10 8 -3 12 -2 9 4 -6 10 -25 14 -25 6z"/>
<path d="M1845 950 l-20 -9 20 0 c11 0 29 4 40 9 l20 9 -20 0 c-11 0 -29 -4
-40 -9z"/>
<path d="M4415 950 c-3 -5 1 -10 10 -10 9 0 13 5 10 10 -3 6 -8 10 -10 10 -2
0 -7 -4 -10 -10z"/>
<path d="M1910 946 c0 -2 7 -7 16 -10 8 -3 12 -2 9 4 -6 10 -25 14 -25 6z"/>
<path d="M1801 926 c-10 -12 -8 -13 8 -9 12 3 18 9 15 14 -7 12 -10 11 -23 -5z"/>
<path d="M2142 933 c-27 -4 -33 -8 -30 -26 3 -20 18 -25 60 -18 4 0 7 12 6 26
-1 14 -3 24 -3 23 0 0 -15 -3 -33 -5z m28 -23 c0 -5 -11 -10 -25 -10 -14 0
-25 5 -25 10 0 6 11 10 25 10 14 0 25 -4 25 -10z"/>
<path d="M2190 915 c0 -18 5 -25 20 -25 15 0 20 7 20 25 0 18 -5 25 -20 25
-15 0 -20 -7 -20 -25z m30 6 c0 -6 -4 -12 -8 -15 -5 -3 -9 1 -9 9 0 8 4 15 9
15 4 0 8 -4 8 -9z"/>
<path d="M1930 898 l-25 -11 30 -7 c23 -6 25 -8 8 -9 -35 -2 -38 -21 -4 -21
28 0 31 3 31 30 0 33 -3 34 -40 18z"/>
<path d="M4417 882 l-48 -29 38 -6 c61 -11 86 -8 113 13 29 22 21 37 -25 45
-22 4 -43 -2 -78 -23z"/>
<path d="M1800 868 c0 -38 45 -122 80 -151 36 -31 122 -77 142 -77 7 0 -14 14
-47 31 -96 49 -136 95 -150 172 -8 43 -25 60 -25 25z"/>
<path d="M1860 871 c5 -10 6 -21 3 -25 -3 -3 -1 -6 5 -6 6 0 14 5 17 10 3 6 1
10 -6 10 -8 0 -8 4 -1 13 8 10 6 13 -9 14 -15 1 -17 -2 -9 -16z"/>
<path d="M6702 855 c0 -11 6 -56 13 -100 l14 -80 -5 65 c-5 66 -22 151 -22
115z"/>
<path d="M2212 823 c-15 -48 -10 -52 10 -8 9 20 12 37 8 40 -4 2 -12 -12 -18
-32z"/>
<path d="M2075 823 l-17 -28 23 22 c12 12 20 25 17 28 -3 3 -13 -7 -23 -22z"/>
<path d="M4510 785 c-19 -14 -29 -25 -22 -25 7 0 25 11 40 25 34 31 27 31 -18
0z"/>
<path d="M2045 783 c-11 -3 -30 -14 -43 -26 l-23 -21 23 -13 c13 -7 40 -12 60
-13 29 0 41 6 57 28 l20 28 -33 12 c-18 7 -34 11 -37 11 -2 -1 -13 -3 -24 -6z
m50 -13 c3 -5 -3 -10 -15 -10 -12 0 -18 5 -15 10 3 6 10 10 15 10 5 0 12 -4
15 -10z m-45 -5 c0 -2 -10 -10 -22 -16 -21 -11 -22 -11 -9 4 13 16 31 23 31
12z m40 -35 c-20 -13 -50 -13 -50 0 0 6 15 10 33 10 24 0 28 -3 17 -10z"/>
<path d="M4296 740 c3 -30 10 -86 16 -125 7 -38 12 -133 12 -210 1 -155 -9
-200 -70 -335 -35 -77 -20 -70 21 10 49 96 66 177 66 310 1 113 -18 279 -41
370 -8 29 -8 26 -4 -20z"/>
<path d="M780 760 c0 -5 7 -10 15 -10 8 0 15 5 15 10 0 6 -7 10 -15 10 -8 0
-15 -4 -15 -10z"/>
<path d="M2175 744 c-9 -15 -12 -23 -6 -20 11 7 35 46 28 46 -3 0 -12 -12 -22
-26z"/>
<path d="M582 717 c-11 -19 -27 -47 -37 -63 l-17 -29 20 25 c24 29 66 100 59
100 -3 0 -14 -15 -25 -33z"/>
<path d="M1170 705 c13 -14 26 -25 28 -25 3 0 -5 11 -18 25 -13 14 -26 25 -28
25 -3 0 5 -11 18 -25z"/>
<path d="M6883 685 c0 -27 2 -38 4 -22 2 15 2 37 0 50 -2 12 -4 0 -4 -28z"/>
<path d="M2123 674 c-21 -23 -41 -34 -60 -35 -20 0 -23 -2 -11 -7 15 -6 18
-27 22 -167 4 -173 16 -235 66 -340 18 -38 44 -73 69 -93 50 -40 63 -42 18 -2
-33 28 -34 32 -26 72 4 24 10 93 12 153 2 61 2 84 0 52 l-4 -58 -19 23 c-21
25 -42 16 -40 -18 3 -72 11 -119 25 -141 9 -13 15 -27 12 -29 -8 -8 -46 64
-62 118 -27 90 -46 236 -44 335 1 84 4 95 23 105 24 13 56 47 56 60 0 11 0 11
-37 -28z"/>
<path d="M4477 703 c-12 -12 -7 -168 8 -259 31 -182 85 -271 222 -361 59 -40
57 -37 43 -64 -10 -18 -7 -19 40 -19 27 0 50 4 50 9 0 14 -50 51 -68 51 -22 0
-136 84 -175 131 -20 22 -47 73 -62 112 -31 84 -59 278 -52 355 6 53 5 57 -6
45z"/>
<path d="M1085 689 c-4 -6 -5 -12 -2 -15 2 -3 7 2 10 11 7 17 1 20 -8 4z"/>
<path d="M5575 662 c-112 -42 -158 -81 -208 -177 l-31 -60 -4 -213 -4 -213
136 2 136 2 -45 39 c-52 46 -72 83 -81 149 -6 46 -6 48 17 43 23 -5 23 -5 4 7
-19 12 -19 12 0 20 48 19 109 0 74 -22 -12 -7 -11 -9 1 -9 21 0 41 45 27 59
-6 6 -16 11 -21 11 -6 0 -2 -8 9 -17 18 -14 18 -15 2 -9 -10 3 -36 6 -57 6
-40 0 -52 13 -44 47 5 17 11 19 57 12 29 -4 61 -11 71 -15 13 -5 17 -4 13 3
-4 6 -30 17 -57 24 -30 8 -45 16 -38 20 19 10 230 49 264 49 26 -1 23 -4 -29
-32 -31 -17 -56 -33 -54 -35 2 -2 30 9 62 23 l58 27 18 -24 c10 -13 19 -30 19
-36 0 -7 1 -16 3 -20 1 -4 -14 -7 -33 -6 -19 0 -47 -6 -62 -13 -33 -17 -41
-18 -32 -2 5 7 3 8 -5 3 -22 -13 4 -28 27 -16 11 6 37 13 57 16 47 6 43 -15
-6 -29 -25 -7 -29 -10 -15 -14 10 -2 32 6 49 18 l30 23 -7 -74 c-5 -53 -16
-92 -38 -136 -17 -35 -35 -63 -39 -63 -5 0 -9 -7 -9 -15 0 -13 21 -15 125 -15
l126 0 -6 52 c-24 221 -50 311 -122 426 -60 97 -94 135 -149 167 -59 35 -125
41 -189 17z m350 -383 c8 -25 -1 -65 -21 -93 l-14 -20 0 20 c0 43 13 114 21
114 4 0 11 -9 14 -21z m-480 -46 c3 -21 8 -49 11 -62 5 -21 3 -23 -10 -12 -19
16 -40 77 -32 96 10 27 25 16 31 -22z"/>
<path d="M6732 543 c-3 -165 -13 -214 -69 -333 -52 -112 -42 -109 16 3 49 98
63 174 59 337 l-4 125 -2 -132z"/>
<path d="M1892 605 c-1 -11 3 -38 7 -60 7 -34 9 -35 9 -10 0 35 -15 101 -16
70z"/>
<path d="M6892 590 c0 -19 2 -27 5 -17 2 9 2 25 0 35 -3 9 -5 1 -5 -18z"/>
<path d="M6902 535 c0 -11 3 -29 8 -40 11 -25 11 1 0 35 -6 20 -8 21 -8 5z"/>
<path d="M1914 315 c1 -144 -3 -193 -17 -244 -10 -35 -16 -66 -13 -68 7 -7 22
33 38 96 13 52 13 307 0 361 -5 23 -8 -29 -8 -145z"/>
<path d="M6920 460 c0 -21 55 -136 71 -146 7 -4 2 9 -10 30 -13 20 -32 58 -42
84 -10 26 -18 40 -19 32z"/>
<path d="M2297 230 c-21 -183 -21 -181 -4 -177 7 1 13 -10 15 -25 2 -16 8 -28
13 -28 10 0 11 307 0 355 -4 21 -12 -18 -24 -125z"/>
<path d="M761 354 c-19 -8 -49 -26 -66 -40 -48 -37 -117 -175 -140 -282 -6
-29 -4 -32 17 -32 13 0 30 6 36 12 9 9 15 10 20 2 8 -12 182 -15 182 -3 0 12
-30 19 -86 19 -57 0 -66 10 -44 49 8 16 16 17 57 10 26 -5 56 -12 67 -15 11
-4 16 -2 12 4 -3 5 -33 15 -66 23 l-60 13 36 37 c27 28 49 39 92 48 50 10 58
9 76 -8 12 -10 33 -25 48 -33 l28 -14 -35 -18 c-19 -11 -35 -23 -35 -27 0 -5
15 0 33 11 41 25 55 25 92 -5 l29 -24 -42 -7 c-45 -7 -102 -40 -110 -61 -2 -7
2 -13 9 -13 7 0 9 3 6 7 -11 11 47 31 79 27 16 -2 21 -1 12 2 -26 8 -22 22 7
22 14 0 25 -5 25 -11 0 -6 7 -2 15 9 13 17 14 17 15 1 0 -14 5 -16 26 -11 18
5 25 3 24 -7 -4 -28 0 -39 15 -39 18 0 18 9 0 83 -24 102 -111 224 -185 259
-52 25 -148 31 -189 12z"/>
<path d="M5701 317 c-1 -10 8 -45 19 -78 12 -33 18 -70 14 -81 -4 -14 -2 -18
5 -14 20 13 13 54 -25 156 -7 19 -13 27 -13 17z"/>
<path d="M5480 218 c0 -2 9 -11 20 -21 11 -9 20 -13 20 -7 0 5 -9 14 -20 20
-11 6 -20 9 -20 8z"/>
<path d="M3363 185 c-45 -19 -58 -48 -43 -96 7 -20 10 -45 6 -54 -3 -9 -2 -13
4 -10 13 8 13 41 -1 66 -8 16 -7 26 5 45 14 20 19 22 35 12 26 -16 53 -3 49
24 -4 28 -15 30 -55 13z"/>
<path d="M3119 139 c-9 -17 -8 -23 2 -30 22 -13 41 -11 54 8 11 15 15 15 29 4
9 -8 19 -11 22 -9 9 10 -48 48 -72 48 -14 0 -28 -9 -35 -21z"/>
<path d="M5710 130 c8 -5 13 -10 10 -11 -3 0 -14 -2 -24 -4 -11 -2 -31 -16
-45 -30 l-26 -26 28 -25 c31 -26 53 -30 90 -13 20 9 47 46 47 63 0 7 -88 -3
-115 -13 -28 -12 -29 -12 -12 7 22 24 75 36 93 21 10 -8 14 -8 14 0 0 6 -13
17 -30 26 -32 17 -54 20 -30 5z m50 -72 c0 -14 -53 -29 -79 -23 -19 5 -22 8
-11 15 8 5 18 6 22 4 4 -3 8 0 8 6 0 5 14 9 30 8 17 -1 30 -6 30 -10z"/>
<path d="M6599 93 c-13 -16 -12 -17 4 -4 9 7 17 15 17 17 0 8 -8 3 -21 -13z"/>
<path d="M3087 94 c-4 -4 -7 -14 -7 -23 0 -11 3 -12 11 -4 6 6 10 16 7 23 -2
6 -7 8 -11 4z"/>
<path d="M958 3 c7 -3 16 -2 19 1 4 3 -2 6 -13 5 -11 0 -14 -3 -6 -6z"/>
<path d="M1048 3 c6 -2 18 -2 25 0 6 3 1 5 -13 5 -14 0 -19 -2 -12 -5z"/>
</g>
</svg>
